<?xml version="1.0" encoding="UTF-8" standalone="no"?>
<svg width="75.93px" height="75.93px" viewBox="0 0 75.93 75.93" version="1.1" xmlns="http://www.w3.org/2000/svg" xmlns:xlink="http://www.w3.org/1999/xlink" xmlns:sketch="http://www.bohemiancoding.com/sketch/ns">
    <!-- Generator: Sketch 3.4.4 (17249) - http://www.bohemiancoding.com/sketch -->
    <title></title>
    <desc>Created with Sketch.</desc>
    <defs></defs>
    <g id="Page-1" stroke="none" stroke-width="1" fill="none" fill-rule="evenodd" sketch:type="MSPage">
        <g id="SOCIAL-ICONS-SKETCH" sketch:type="MSArtboardGroup" transform="translate(-140.250000, -467.130000)" fill="#F24033">
            <g id="FULL-COLOR" sketch:type="MSLayerGroup" transform="translate(140.000000, 467.000000)">
                <path d="M38.22,0.13 C17.25,0.13 0.25,17.13 0.25,38.1 C0.25,59.06 17.25,76.06 38.22,76.06 C59.18,76.06 76.18,59.06 76.18,38.1 C76.18,17.13 59.18,0.13 38.22,0.13 L38.22,0.13 Z M30.85,51.24 C23.77,51.24 18.03,45.43 18.03,38.34 C18.03,31.25 23.77,25.46 30.85,25.46 C34.17,25.46 37.2,26.72 39.47,28.79 C36.79,31.33 36.88,31.47 35.82,32.53 C34.51,31.43 33.07,30.64 30.85,30.64 C26.64,30.64 23.36,34.06 23.36,38.27 C23.36,42.48 26.64,46 30.85,46 C35,46 36.69,44 37.78,41 L31,41 L31,36 L43.16,36 C44.01,42 41.43,51.24 30.85,51.24 L30.85,51.24 Z M58,39 L54,39 L54,44 L51,44 L51,39 L46,39 L46,36 L51,36 L51,32 L54,32 L54,36 L58,36 L58,39 L58,39 Z" id="Google+" sketch:type="MSShapeGroup"></path>
            </g>
        </g>
    </g>
</svg>